<svg width="276" height="200" viewBox="0 0 276 200" fill="none" xmlns="http://www.w3.org/2000/svg">
<path d="M276 100C276 57.9212 241.888 23.8095 199.81 23.8095H76.1905C34.1116 23.8095 -2.86102e-06 57.9211 -2.86102e-06 100V123.809C-2.86102e-06 165.888 34.1116 200 76.1905 200H199.81C241.888 200 276 165.888 276 123.81V100Z" fill="#EEEEEF" fill-opacity="0.1"/>
<mask id="mask0_36_3523" style="mask-type:alpha" maskUnits="userSpaceOnUse" x="0" y="0" width="276" height="200">
<path d="M276 0H0V123.81C0 165.888 34.1116 200 76.1905 200H199.81C241.888 200 276 165.888 276 123.81V0Z" fill="#23BA3B"/>
</mask>
<g mask="url(#mask0_36_3523)">
<path d="M69.0428 254.452L116.95 237.243L206.389 213.596C208.413 213.061 209.592 210.957 208.993 208.952L147.652 3.57187C147.063 1.60243 144.985 0.487588 143.019 1.08685L5.90095 42.8801C3.95214 43.4741 2.84793 45.5294 3.4285 47.4823L64.2364 252.02C64.843 254.06 67.0395 255.172 69.0428 254.452Z" fill="#8D8D8D"/>
<path d="M23.1984 111.905C17.4484 93.8492 2.49837 46.5476 2.97424 44.6429C3.4501 42.7381 27.7587 35.9127 39.8535 32.7381" stroke="#232323" stroke-width="2.38095" stroke-linecap="round"/>
<path d="M110.435 12.9236L41.1915 33.8326C39.618 34.3077 38.709 35.9493 39.1412 37.535C39.587 39.1708 41.2867 40.1238 42.9148 39.651L112.377 19.4786C114.177 18.9558 115.22 17.0803 114.715 15.2749C114.199 13.4305 112.268 12.37 110.435 12.9236Z" fill="#232323"/>
<path d="M10.319 60.5242L25.3994 107.501L65.7712 248.513C66.4167 250.768 68.7713 252.069 71.0239 251.416L202.559 213.275C204.814 212.621 206.107 210.257 205.442 208.005L149.638 19.158C148.975 16.9131 146.617 15.6317 144.372 16.2965L13.1494 55.1673C10.87 55.8425 9.59232 58.2607 10.319 60.5242Z" fill="#EEEEEF"/>
<path d="M15.9487 106.664L83.5573 266.462C84.4651 268.607 86.9341 269.617 89.0835 268.721L196.845 223.81C199.032 222.898 200.046 220.368 199.094 218.197L129.465 59.4057C128.539 57.2936 126.095 56.311 123.966 57.1949L18.2248 101.099C16.0542 102.001 15.0325 104.498 15.9487 106.664Z" fill="white"/>
<path fill-rule="evenodd" clip-rule="evenodd" d="M87.148 258.649C87.9427 260.528 90.1055 261.411 91.988 260.627L188.927 220.226C190.841 219.428 191.728 217.215 190.896 215.316L125.943 67.1887C125.133 65.3398 122.992 64.4796 121.127 65.2537L26.0743 104.72C24.1746 105.509 23.2804 107.694 24.0819 109.588L87.148 258.649ZM123.65 61.959L123.652 61.9638C123.652 61.9622 123.651 61.9606 123.65 61.959ZM83.5573 266.462L15.9487 106.664C15.0325 104.498 16.0542 102.001 18.2248 101.099L123.966 57.1949C126.095 56.311 128.539 57.2936 129.465 59.4057L199.094 218.197C200.046 220.368 199.032 222.898 196.845 223.81L89.0835 268.721C86.9341 269.617 84.4651 268.607 83.5573 266.462Z" fill="#B2B2B2"/>
<path d="M138 77.381L201.052 223.214" stroke="#232323" stroke-width="2.38095" stroke-linecap="round"/>
<rect width="3.00604" height="6.17138" rx="1.05912" transform="matrix(0.925171 -0.379551 0.379103 0.925355 17.7261 97.6909)" fill="#232323"/>
<rect width="3.00604" height="6.17138" rx="1.05912" transform="matrix(0.925171 -0.379551 0.379103 0.925355 25.4036 94.5411)" fill="#232323"/>
<rect width="3.00604" height="6.17138" rx="1.05912" transform="matrix(0.925171 -0.379551 0.379103 0.925355 33.0811 91.3915)" fill="#232323"/>
<rect width="3.00604" height="6.17138" rx="1.05912" transform="matrix(0.925171 -0.379551 0.379103 0.925355 40.7588 88.2418)" fill="#232323"/>
<rect width="3.00604" height="6.17138" rx="1.05912" transform="matrix(0.925171 -0.379551 0.379103 0.925355 48.4363 85.092)" fill="#232323"/>
<rect width="3.00604" height="6.17138" rx="1.05912" transform="matrix(0.925171 -0.379551 0.379103 0.925355 56.1138 81.9424)" fill="#232323"/>
<rect width="3.00604" height="6.17138" rx="1.05912" transform="matrix(0.925171 -0.379551 0.379103 0.925355 63.7913 78.7927)" fill="#232323"/>
<rect width="3.00604" height="6.17138" rx="1.05912" transform="matrix(0.925171 -0.379551 0.379103 0.925355 71.4688 75.6429)" fill="#232323"/>
<rect width="3.00604" height="6.17138" rx="1.05912" transform="matrix(0.925171 -0.379551 0.379103 0.925355 79.1465 72.4933)" fill="#232323"/>
<rect width="3.00604" height="6.17138" rx="1.05912" transform="matrix(0.925171 -0.379551 0.379103 0.925355 86.824 69.3435)" fill="#232323"/>
<rect width="3.00604" height="6.17138" rx="1.05912" transform="matrix(0.925171 -0.379551 0.379103 0.925355 94.5015 66.1938)" fill="#232323"/>
<rect width="3.00604" height="6.17138" rx="1.05912" transform="matrix(0.925171 -0.379551 0.379103 0.925355 102.179 63.0441)" fill="#232323"/>
<rect width="3.00604" height="6.17138" rx="1.05912" transform="matrix(0.925171 -0.379551 0.379103 0.925355 109.856 59.8944)" fill="#232323"/>
<rect width="3.00604" height="6.17138" rx="1.05912" transform="matrix(0.925171 -0.379551 0.379103 0.925355 117.534 56.7448)" fill="#232323"/>
<rect width="96.4338" height="2.99713" rx="1.49856" transform="matrix(0.917377 -0.398018 0.397556 0.917578 33.0728 113.05)" fill="#D9D9D9"/>
<rect width="96.4338" height="2.99713" rx="1.49856" transform="matrix(0.917377 -0.398018 0.397556 0.917578 35.7188 117.816)" fill="#D9D9D9"/>
<rect width="96.4338" height="2.99713" rx="1.49856" transform="matrix(0.917377 -0.398018 0.397556 0.917578 38.3647 122.582)" fill="#D9D9D9"/>
<rect width="96.4338" height="2.99713" rx="1.49856" transform="matrix(0.917377 -0.398018 0.397556 0.917578 41.0105 128.407)" fill="#D9D9D9"/>
<rect width="96.4338" height="2.99713" rx="1.49856" transform="matrix(0.917377 -0.398018 0.397556 0.917578 44.1858 133.703)" fill="#D9D9D9"/>
<path opacity="0.3" d="M131.917 133.979C117.275 140.827 86.457 144.812 82.435 161.581C77.4074 182.543 146.999 134.809 89.0502 141.45C31.1011 148.091 98.5761 193.75 111.277 196.448C123.978 199.146 80.8474 158.468 80.8474 184.826C80.8474 211.184 123.978 220.731 143.559 203.297C163.14 185.864 176.106 229.24 145.676 217.825C115.246 206.41 140.12 196.448 135.092 173.826C130.064 151.204 85.6103 185.241 119.48 190.845C153.35 196.448 147.264 160.959 133.504 150.582" stroke="#232323" stroke-width="1.90476" stroke-linecap="round"/>
<path fill-rule="evenodd" clip-rule="evenodd" d="M231.992 315.476C227.977 277.388 218.479 198.488 212.612 187.585C210.902 184.407 207.483 178.678 203.231 171.554C189.252 148.13 166.275 109.63 165.472 97.1707C164.634 84.172 168.789 75.6809 170.972 73.0602C171.757 69.7406 174.062 63.0491 176.995 62.8394C180.662 62.5773 209.993 54.4531 214.184 53.1428C214.365 53.0859 214.542 53.0296 214.713 52.9748C218.496 51.7661 219.933 51.3069 225.445 62.8394C226.143 64.2994 226.821 65.7325 227.482 67.128C232.277 77.255 236.134 85.4011 239.587 87.4741C239.997 87.72 240.409 87.9318 240.813 88.139C244.281 89.9195 247.105 91.3692 241.944 111.323C236.183 133.599 232.778 149.585 239.325 163.737C244.563 175.058 283.585 269.439 302.441 315.214L231.992 315.476ZM185.638 101.626C187.384 101.801 191.504 101.259 194.018 97.6949C197.946 96.8213 206.17 96.3321 207.636 101.364C209.103 106.396 198.47 109.051 192.971 109.75C192.01 108.877 189.199 106.029 185.638 101.626Z" fill="#D4D4D4"/>
<path d="M189.491 106.318L190.983 108.44L192.697 109.641C192.101 109.085 190.974 107.956 189.491 106.318Z" fill="#999999"/>
<path d="M192.848 109.746L193.602 110.274L200.149 114.73L205.649 112.371L201.772 107.586C198.805 108.723 195.316 109.43 192.848 109.746Z" fill="#999999"/>
<path d="M204.901 106.067L214.815 110.798L210.887 86.4258C211.494 85.1228 213.172 82.6277 215.045 83.0121C215.056 83.0145 215.066 83.0168 215.077 83.0189C215.07 83.0173 215.063 83.0158 215.056 83.0144C215.052 83.0136 215.049 83.0129 215.045 83.0121C213.721 82.7113 210.878 79.8529 209.839 70.7015C203.815 71.1383 190.145 72.1167 183.65 72.536C177.155 72.9554 181.642 80.7476 184.697 84.5913L182.34 86.1637L182.079 94.8121L186.007 101.364L186.211 101.654C188.199 101.626 191.652 100.83 193.864 97.6949C197.792 96.8213 206.015 96.3321 207.482 101.364C208.035 103.262 206.866 104.822 204.901 106.067Z" fill="#999999"/>
<path d="M176.055 72.274C185.571 73.0602 205.701 73.5319 210.101 69.1292C209.839 73.3223 210.834 82.1803 216.91 84.0672" stroke="#232323" stroke-width="1.90476" stroke-linecap="round" stroke-linejoin="round"/>
<path d="M182.341 95.8604L194.584 88.0855C195.393 87.5716 196.445 87.6784 197.238 88.2169C199.272 89.598 202.814 91.2128 206.958 90.881" stroke="#232323" stroke-width="1.90476" stroke-linecap="round" stroke-linejoin="round"/>
<path d="M211.41 86.6879C209.191 86.6879 204.184 85.4793 200.983 80.7856C200.603 80.2277 200.012 79.8342 199.341 79.767L198.539 79.6868C198.056 79.6384 197.573 79.7607 197.156 80.0098C195.672 80.8967 192.547 82.5501 188.102 84.3293" stroke="#232323" stroke-width="1.90476" stroke-linecap="round" stroke-linejoin="round"/>
<path d="M205.226 171.931L240.367 160.36C241.413 160.016 242.478 160.323 243.009 161.288C249.864 173.74 286.214 258.962 301.617 303.262C301.716 303.549 301.769 303.837 301.783 304.141L302.139 312.169C302.219 313.967 300.776 315.466 298.976 315.453L228.605 314.964C227.521 314.957 226.613 314.348 226.391 313.287C225.378 308.436 223.292 292.53 220.315 254.151C217.163 213.525 208.585 187.548 203.325 176.657C202.443 174.832 203.301 172.565 205.226 171.931Z" fill="#B2B2B2"/>
<path d="M183.388 72.7981L245.718 138.054C243.413 141.828 240.567 143.121 239.433 143.295L182.34 84.8534C181.083 74.7899 173.96 72.6234 170.555 72.7981L160.604 57.8601L161.913 56.8118L173.96 65.4601C175.427 69.4436 180.856 72.0119 183.388 72.7981Z" fill="#232323"/>
<path d="M245.885 167.061L204.862 180.064C204.326 178.8 203.812 177.665 203.325 176.658C202.444 174.833 203.302 172.565 205.226 171.931L240.369 160.36C241.414 160.016 242.478 160.322 243.008 161.286C243.691 162.526 244.667 164.489 245.885 167.061Z" fill="white"/>
<path d="M165.485 90.2981C165.953 83.7031 167.687 78.7463 169.28 75.7023C170.066 77.0533 170.842 78.9686 171.31 81.5476C171.937 84.9944 168.82 88.1148 165.485 90.2981Z" fill="#EFEFEF"/>
<path d="M231.314 76.205C232.623 78.7384 235.818 84.3292 238.123 86.4258C241.615 87.1247 247.342 92.8728 242.313 110.274C237.285 127.676 235.679 144.78 235.504 151.157" stroke="#232323" stroke-width="1.90476" stroke-linecap="round"/>
<path d="M199.625 114.467C195.959 112.196 188.05 106.343 185.745 101.102C185.308 99.5294 183.912 96.2273 181.817 95.5983C183.126 89.9201 183.65 77.5154 175.269 73.3223C173.174 71.8372 168.617 71.0684 167.151 79.874C165.317 90.881 161.913 96.6466 170.817 113.681" stroke="#232323" stroke-width="1.90476" stroke-linecap="round"/>
</g>
</svg>
