<?xml version="1.0" encoding="UTF-8"?>
<svg id="Layer_2" data-name="Layer 2" xmlns="http://www.w3.org/2000/svg" viewBox="0 0 153.51 59.99">
  <defs>
    <style>
      .cls-1 {
        fill: #10493b;
      }
    </style>
  </defs>
  <g id="Layer_1-2" data-name="Layer 1">
    <g>
      <path class="cls-1" d="m70.96,15.33v-3.01c.83.75,2.37,2.19,3.96,2.03.94-.1,1.35-.35,1.35-.93,0-.62-.6-.83-1.61-1.28l-1.47-.69c-1.28-.57-2.39-1.76-2.39-3.67,0-2.25,1.82-4.08,4.42-4.08,1.35,0,2.99.93,3.94,1.76l-.04,2.97c-1.28-1.24-3.01-1.74-3.9-1.74-.76,0-1.24.31-1.24.89,0,.62.68.85,1.75,1.32l1.44.62c1.47.65,2.32,1.78,2.32,3.6,0,2.22-1.68,4.21-4.64,4.21-1.06,0-2.61-.72-3.89-2Z"/>
      <path class="cls-1" d="m70.96,34.81v-3.01c.83.75,2.37,2.19,3.96,2.03.94-.1,1.35-.35,1.35-.93,0-.62-.6-.83-1.61-1.28l-1.47-.69c-1.28-.57-2.39-1.76-2.39-3.67,0-2.25,1.82-4.08,4.42-4.08,1.35,0,2.99.93,3.94,1.76l-.04,2.97c-1.28-1.24-3.01-1.74-3.9-1.74-.76,0-1.24.31-1.24.89,0,.62.68.85,1.75,1.32l1.44.62c1.47.65,2.32,1.78,2.32,3.6,0,2.22-1.68,4.21-4.64,4.21-1.06,0-2.61-.72-3.89-2Z"/>
      <path class="cls-1" d="m81.37,3.94h3.14v13.14h-3.14V3.94Z"/>
      <path class="cls-1" d="m87.13,3.94h3.36l1.79,5.37c.22.72.4,1.54.62,2.31h.07c.22-.76.4-1.58.62-2.31l1.72-5.37h3.36v13.14h-2.85v-3.89c0-1.33.25-3.37.4-4.69h-.07l-.99,3.15-1.49,4.36h-1.68l-1.46-4.35-.94-3.15h-.07c.15,1.32.4,3.36.4,4.69v3.89h-2.8V3.94h-.01Z"/>
      <path class="cls-1" d="m101.3,3.94h4.35c2.6,0,4.82,1.06,4.82,4.37s-2.26,4.61-4.75,4.61h-1.28v4.17h-3.14V3.94Zm4.26,6.22c1.24,0,1.82-.69,1.82-1.86s-.69-1.61-1.9-1.61h-1.06v3.47h1.14Z"/>
      <path class="cls-1" d="m112.39,3.94h3.14v10.23h4.49v2.92h-7.62V3.94h0Z"/>
      <path class="cls-1" d="m122.06,3.94h7.66v2.92h-4.53v2.07h3.87v2.92h-3.87v2.35h4.71v2.92h-7.85V3.94Z"/>
      <path class="cls-1" d="m80.86,29.94c0-4.33,2.22-6.75,5.51-6.75s5.51,2.44,5.51,6.75-2.22,6.87-5.51,6.87-5.51-2.55-5.51-6.87Zm7.82,0c0-2.39-.87-3.76-2.31-3.76s-2.31,1.37-2.31,3.76.87,3.89,2.31,3.89c1.42-.01,2.31-1.5,2.31-3.89Z"/>
      <path class="cls-1" d="m93.99,23.43h3.14v10.23h4.49v2.92h-7.62v-13.15h0Z"/>
      <path class="cls-1" d="m102.87,30.22v-6.79h3.14v7.19c0,2.35.54,3.19,1.79,3.19s1.82-.85,1.82-3.19v-7.19h3.03v6.79c0,4.49-1.53,6.6-4.86,6.6s-4.92-2.11-4.92-6.6Z"/>
      <path class="cls-1" d="m117.46,26.34h-3.14v-2.92h9.41v2.92h-3.14v10.22h-3.14v-10.22h0Z"/>
      <path class="cls-1" d="m125.49,23.43h3.14v13.14h-3.14v-13.14h0Z"/>
      <path class="cls-1" d="m130.75,29.94c0-4.33,2.22-6.75,5.51-6.75s5.51,2.44,5.51,6.75-2.22,6.87-5.51,6.87-5.51-2.55-5.51-6.87Zm7.8,0c0-2.39-.87-3.76-2.31-3.76s-2.31,1.37-2.31,3.76.87,3.89,2.31,3.89c1.43-.01,2.31-1.5,2.31-3.89Z"/>
      <path class="cls-1" d="m143.89,23.43h3.21l2.62,5.86,1.12,2.96h.07c-.15-1.42-.4-3.4-.4-5.01v-3.8h3v13.14h-3.21l-2.62-5.89-1.12-2.93h-.07c.15,1.5.4,3.4.4,5.01v3.8h-3v-13.14Z"/>
      <path class="cls-1" d="m70.87,49.57c0-4.4,2.74-6.92,5.73-6.92,1.57,0,2.85.81,3.68,1.74l-1.64,2.22c-.58-.57-1.17-.97-1.97-.97-1.39,0-2.6,1.42-2.6,3.8s1.03,3.85,2.55,3.85c.92,0,1.64-.53,2.15-1.14l1.64,2.18c-1,1.29-2.37,1.94-3.9,1.94-3.01.01-5.65-2.21-5.65-6.71Z"/>
      <path class="cls-1" d="m80.84,49.42c0-4.33,2.22-6.75,5.51-6.75s5.51,2.44,5.51,6.75-2.22,6.87-5.51,6.87-5.51-2.55-5.51-6.87Zm7.8,0c0-2.39-.87-3.76-2.31-3.76s-2.31,1.37-2.31,3.76.87,3.89,2.31,3.89c1.43-.01,2.31-1.5,2.31-3.89Z"/>
    </g>
    <path class="cls-1" d="m0,3.46v53.09c0,.29.04.58.11.86V2.6c-.07.28-.11.56-.11.86Z"/>
    <path class="cls-1" d="m60.07,56.54V3.46c0-.1,0-.21-.01-.31v53.68c.01-.1.01-.19.01-.29Z"/>
    <path class="cls-1" d="m.15,2.47s-.03.08-.04.12v54.79s.03.08.04.12V2.47Z"/>
    <path class="cls-1" d="m56.33,3.79c-1.03,1.03-2.49,2.51-3.25,3.28-3.54,3.58-5.8,5.86-5.9,5.94l-.1.08h-6.71l.03-.06c.04-.07,2.19-2.26,7.4-7.51,1.17-1.17,2.39-2.42,2.74-2.78.35-.35,1.08-1.1,1.62-1.64.56-.56,1.01-1.03,1.03-1.06q.03-.06-.11-.06c-.08,0-.74.01-1.44.03-.72.01-12.59.01-26.41.01H2.82C1.53.28.49,1.24.11,2.49v55.04c.36,1.24,1.4,2.19,2.68,2.44h26.94c12.11,0,22.66.01,27.36.01,1.57-.25,2.79-1.54,2.93-3.15V3.17c-.07-.83-.43-1.58-.99-2.15h-.01c-.43.5-1.67,1.74-2.68,2.78Zm-36.94,30.63c-.08.93-.4,1.82-.92,2.58-.28.42-.46.62-.83,1-1.11,1.08-2.89,1.76-5.04,1.96-.57.06-2,.06-2.51,0-.85-.08-1.57-.21-2.22-.36-.39-.1-1.12-.35-1.19-.4-.06-.04-.06-.06-.04-2.08,0-1.12.01-2.04.01-2.06,0,0,.06.01.11.04s.24.11.4.18c.92.4,2,.72,3.01.89,2.68.44,4.57-.35,4.65-1.92.03-.56-.1-.92-.44-1.35-.49-.58-1.24-1-2.74-1.53-.87-.31-1.22-.46-1.85-.76-.94-.47-1.61-.92-2.18-1.47-1.14-1.1-1.71-2.46-1.65-3.94.06-1.62.75-3.03,2.01-4.07.92-.76,1.97-1.25,3.32-1.51.43-.08,1.14-.18,1.49-.21.31-.01,1.49-.01,1.78.01,1.04.08,2.14.28,2.93.51l.15.04v1.79c.03,1.92.01,2.25-.04,2.25-.01,0-.12-.04-.24-.1-.46-.24-1.31-.51-1.93-.64-1.67-.33-2.9-.28-3.79.19-.29.15-.49.31-.67.51-.32.4-.44.82-.37,1.25.15.89.82,1.44,2.6,2.14,1.86.74,2,.79,2.57,1.08,1.04.53,1.83,1.11,2.42,1.78.67.78,1.01,1.51,1.21,2.61.01.4.04,1.15,0,1.57Zm16.08.89c-.26,1.04-.78,1.92-1.57,2.68-.99.96-2.39,1.58-4.24,1.87-.67.11-1.15.14-2.1.14-1.28,0-2.33-.12-3.46-.4-.39-.1-1.12-.35-1.19-.39-.06-.04-.06-.07-.04-2.08v-2.06s.22.1.22.1c1.64.78,3.69,1.24,5.12,1.12,1.14-.08,1.85-.36,2.36-.89.31-.32.44-.68.47-1.17.04-.75-.32-1.36-1.14-1.9-.51-.35-.9-.53-2.22-1-.64-.22-.99-.36-1.26-.5-.1-.04-.25-.11-.33-.15-.25-.11-.74-.39-1.04-.58-1.47-.93-2.4-2.12-2.72-3.5-.12-.5-.17-.9-.14-1.36.06-1.5.62-2.8,1.67-3.8.79-.78,1.67-1.26,2.86-1.62.53-.17,1.44-.32,2.17-.39.42-.04,1.61-.03,2.04.01.67.07,1.21.14,1.69.24.57.11,1.21.29,1.22.33.01.01,0,.93,0,2.04v2s-.18-.08-.18-.08c-.6-.31-1.54-.6-2.4-.75-1.24-.22-2.17-.19-3,.07-.42.14-.72.31-.99.6-.19.19-.31.37-.4.61-.24.58-.04,1.29.49,1.79.39.36,1.04.72,2.06,1.12,2.06.81,2.6,1.06,3.33,1.5,1.53.93,2.43,2.1,2.76,3.57.11.51.15.79.15,1.37-.03.62-.06.92-.19,1.46Zm7.91-4.49c.15,1.08.43,1.94.87,2.68.93,1.56,2.43,2.44,4.58,2.72.33.04,1.4.06,1.78.01,1.08-.11,1.79-.26,2.62-.53.12-.04.24-.07.25-.07s.01.86.01,1.9v1.9l-.25.07c-1.56.47-4.1.67-5.93.43-1.44-.18-2.57-.5-3.64-1.03-.96-.47-1.65-.97-2.42-1.74-.54-.54-.89-1-1.29-1.68-.6-1-1.01-2.18-1.21-3.44-.12-.79-.15-1.12-.15-2.14,0-.96.01-1.1.1-1.79.28-2.1,1.21-4.07,2.57-5.47.87-.9,1.65-1.49,2.69-2.01,1.44-.74,3.11-1.15,4.9-1.22.67-.03.85-.03,1.49,0,1.03.04,1.93.17,2.68.35.22.06.42.11.44.11.04.01.04.12.04,1.99,0,1.65,0,1.99-.03,1.99-.01,0-.11-.03-.22-.08-.21-.08-.87-.31-1.12-.36-.89-.21-1.54-.29-2.4-.29-.75,0-1.26.07-2,.25-1.24.32-2.17.87-2.87,1.74-.83,1-1.29,2.12-1.46,3.51-.08.39-.08,1.87-.04,2.21Z"/>
  </g>
</svg>