<?xml version="1.0" encoding="UTF-8"?>
<svg id="Layer_2" data-name="Layer 2" xmlns="http://www.w3.org/2000/svg" xmlns:xlink="http://www.w3.org/1999/xlink" viewBox="0 0 329.55 117.14">
  <defs>
    <style>
      .cls-1 {
        fill: url(#linear-gradient-2);
      }

      .cls-2 {
        fill: url(#linear-gradient-3);
      }

      .cls-3 {
        fill: url(#linear-gradient);
      }
    </style>
    <linearGradient id="linear-gradient" x1="89.81" y1="105.43" x2="-3.9" y2="11.71" gradientUnits="userSpaceOnUse">
      <stop offset="0" stop-color="#4db748"/>
      <stop offset=".98" stop-color="#276a5d"/>
    </linearGradient>
    <linearGradient id="linear-gradient-2" x1="211.63" y1="113.23" x2="102.3" y2="3.9" xlink:href="#linear-gradient"/>
    <linearGradient id="linear-gradient-3" x1="333.46" y1="113.23" x2="224.13" y2="3.9" xlink:href="#linear-gradient"/>
  </defs>
  <g id="Layer_1-2" data-name="Layer 1">
    <g>
      <path class="cls-3" d="M7.81,117.14v-7.81H0v-23.43H23.43v7.81H62.47v-23.43H7.81v-7.81H0V7.81H7.81V0H78.09V7.81h7.81V31.24h-23.43v-7.81H23.43v23.43h54.67v7.81h7.81v54.66h-7.81v7.81H7.81Z"/>
      <path class="cls-1" d="M106.21,117.14V0h23.43V7.81h7.81v15.62h7.81v15.62h7.81v15.62h7.81v-15.62h7.81v-15.62h7.81V7.81h7.81V0h23.43V117.14h-23.43V54.67h-7.81v7.81h-7.81v15.62h-7.81v7.81h-7.81v-7.81h-7.81v-15.62h-7.81v-7.81h-7.81v62.47h-23.43Z"/>
      <path class="cls-2" d="M228.03,117.14V0h23.43V7.81h7.81v15.62h7.81v15.62h7.81v15.62h7.81v-15.62h7.81v-15.62h7.81V7.81h7.81V0h23.43V117.14h-23.43V54.67h-7.81v7.81h-7.81v15.62h-7.81v7.81h-7.81v-7.81h-7.81v-15.62h-7.81v-7.81h-7.81v62.47h-23.43Z"/>
    </g>
  </g>
</svg>