<svg width="266" height="92" viewBox="0 0 266 92" fill="none" xmlns="http://www.w3.org/2000/svg">
<g style="mix-blend-mode:luminosity">
<path d="M197.641 26.3604C199.255 26.96 201.019 26.9999 202.696 26.6148C209.727 25.0012 233.899 20.7286 229.699 39.4604C228.784 43.1768 214.627 63.9899 234.789 71.5876C236.266 72.1513 237.828 72.459 239.409 72.4976C245.617 72.6254 257.918 71.1599 263.067 65.919C269.286 59.588 262.491 62.5903 262.491 62.5903C262.491 62.5903 238.847 72.9083 230.495 61.9616C229.566 60.7436 228.974 58.9745 228.805 57.4516C228.511 54.8112 229.683 51.322 231.223 48.2846C233.308 44.1736 243.316 25.6809 221.588 20.2937C216.582 19.1017 209.313 18.031 199.939 21.9776C194.471 24.2795 195.682 25.6326 197.641 26.3604Z" fill="#BDD6F9"/>
<path d="M202.479 19.4568L196.186 21.8121C194.014 22.6252 192.912 25.0454 193.725 27.2178L194.037 28.0513C194.85 30.2238 197.27 31.3257 199.443 30.5127L205.736 28.1574C207.908 27.3443 209.01 24.9241 208.197 22.7517L207.885 21.9182C207.072 19.7457 204.652 18.6437 202.479 19.4568Z" fill="#0E84E5"/>
<path d="M164.722 28.736L143.967 36.5038C142.881 36.9103 142.33 38.1204 142.736 39.2066L142.818 39.4251C143.224 40.5113 144.434 41.0623 145.521 40.6557L166.276 32.888C167.362 32.4815 167.913 31.2714 167.506 30.1852L167.424 29.9667C167.018 28.8805 165.808 28.3295 164.722 28.736Z" fill="url(#paint0_linear_1_3)"/>
<path d="M169.514 40.7361L148.759 48.5039C147.673 48.9104 147.122 50.1205 147.529 51.2068L147.61 51.4252C148.017 52.5114 149.227 53.0624 150.313 52.6559L171.068 44.8881C172.154 44.4815 172.705 43.2714 172.299 42.1852L172.217 41.9668C171.811 40.8806 170.6 40.3296 169.514 40.7361Z" fill="url(#paint1_linear_1_3)"/>
<path d="M188.804 15.71L171.983 22.0056C169.81 22.8187 168.708 25.2389 169.521 27.4113L175.265 42.7564C176.078 44.9289 178.498 46.0308 180.67 45.2178L197.492 38.9222C199.664 38.1091 200.766 35.6889 199.953 33.5165L194.21 18.1714C193.397 15.9989 190.977 14.8969 188.804 15.71Z" fill="#5895F9"/>
<path d="M173.721 19.7358L156.899 26.0314C154.727 26.8444 153.625 29.2646 154.438 31.4371L161.29 49.7444C162.103 51.9168 164.523 53.0188 166.695 52.2058L183.517 45.9102C185.689 45.0971 186.791 42.6769 185.978 40.5044L179.126 22.1971C178.313 20.0247 175.893 18.9227 173.721 19.7358Z" fill="#699CFF"/>
<path d="M176.354 16.0205L176.222 16.0698C174.774 16.6119 174.039 18.2253 174.581 19.6736L184.18 45.3202C184.722 46.7685 186.335 47.5032 187.784 46.9611L187.915 46.9118C189.364 46.3697 190.098 44.7563 189.556 43.308L179.958 17.6614C179.416 16.2131 177.802 15.4784 176.354 16.0205Z" fill="#208AF2"/>
<path d="M4.83078 32.4178C4.83078 32.4178 38.6139 22.9238 33.7091 44.797C32.8574 48.2579 20.5963 66.0784 35.2011 74.6345C38.3371 76.4717 41.9561 77.2856 45.5904 77.2665C52.1064 77.2326 62.4363 75.9785 67.0769 71.255C73.2962 64.924 66.5018 67.9263 66.5018 67.9263C66.5018 67.9263 47.0996 75.9073 37.1179 69.5454C33.7096 67.3731 32.1647 63.1673 33.0902 59.2328C33.5633 57.2785 34.2836 55.3925 35.2339 53.6205C37.4047 49.5546 47.326 31.0168 25.598 25.6296C20.5927 24.4376 13.3229 23.3669 3.9492 27.3135C-5.4245 31.2601 4.83078 32.4178 4.83078 32.4178Z" fill="#BDD6F9"/>
<path d="M71.6196 63.0319L65.3264 65.3872C63.1539 66.2003 62.0519 68.6205 62.865 70.7929L63.177 71.6264C63.99 73.7989 66.4102 74.9009 68.5827 74.0878L74.8759 71.7325C77.0483 70.9194 78.1503 68.4992 77.3373 66.3267L77.0253 65.4932C76.2123 63.3208 73.792 62.2188 71.6196 63.0319Z" fill="#0E84E5"/>
<path d="M82.2523 52.6776L72.9254 56.1683C70.7529 56.9814 69.6509 59.4016 70.464 61.574L74.9614 73.5908C75.7744 75.7632 78.1947 76.8652 80.3671 76.0521L89.694 72.5614C91.8664 71.7483 92.9684 69.3281 92.1554 67.1557L87.658 55.139C86.8449 52.9665 84.4247 51.8645 82.2523 52.6776Z" fill="#5895F9"/>
<path d="M97.7795 43.4258L83.8704 48.6315C81.698 49.4445 80.596 51.8647 81.4091 54.0372L88.2608 72.3445C89.0739 74.517 91.4941 75.619 93.6665 74.8059L107.576 69.6002C109.748 68.7872 110.85 66.3669 110.037 64.1945L103.185 45.8872C102.372 43.7147 99.9519 42.6127 97.7795 43.4258Z" fill="#699CFF"/>
<path d="M100.726 39.6343L100.594 39.6837C99.1455 40.2258 98.4108 41.8392 98.9529 43.2875L108.551 68.9341C109.094 70.3824 110.707 71.117 112.155 70.575L112.287 70.5256C113.735 69.9836 114.47 68.3701 113.928 66.9218L104.33 41.2752C103.787 39.827 102.174 39.0923 100.726 39.6343Z" fill="#208AF2"/>
<path d="M136.243 23.2954C135.742 23.2398 135.283 22.9921 134.961 22.6043C134.639 22.2166 134.48 21.719 134.517 21.2164L135.555 2.26043C135.617 1.12811 136.573 0.26781 137.658 0.36791L139.17 0.507911C140.256 0.608011 141.032 1.62791 140.881 2.75225L138.33 21.5683C138.272 22.0695 138.022 22.5288 137.633 22.8505C137.245 23.1722 136.747 23.3316 136.243 23.2954Z" fill="#418DF9"/>
<path d="M127.282 24.9299C127.126 24.9756 126.963 24.9903 126.802 24.9729C126.64 24.9556 126.484 24.9066 126.341 24.8288C126.199 24.751 126.073 24.6459 125.971 24.5195C125.869 24.393 125.793 24.2478 125.747 24.092L122.041 12.3003C121.933 11.965 121.963 11.6006 122.124 11.2871C122.284 10.9735 122.563 10.7365 122.898 10.628L123.857 10.3385C124.022 10.2905 124.195 10.2771 124.365 10.2992C124.535 10.3213 124.699 10.3784 124.845 10.4669C124.992 10.5555 125.119 10.6735 125.218 10.8136C125.317 10.9536 125.386 11.1127 125.42 11.2807L128.167 23.362C128.244 23.6867 128.195 24.0284 128.031 24.319C127.867 24.6095 127.6 24.8276 127.282 24.9299Z" fill="#418DF9"/>
<path d="M122.281 31.7299C121.617 32.5526 120.282 32.5428 119.254 31.7076L101.002 16.8785C99.9116 15.9928 99.5899 14.5266 100.294 13.6544L101.276 12.438C101.981 11.5654 103.428 11.637 104.459 12.5954L121.729 28.6409C122.702 29.5445 122.945 30.9071 122.281 31.7299Z" fill="#418DF9"/>
<path d="M130.718 70.0316C131.188 70.2132 131.569 70.5702 131.781 71.0273C131.994 71.4844 132.02 72.0061 131.856 72.4824L126.011 90.5442C125.662 91.6231 124.518 92.2102 123.494 91.8368L122.067 91.3156C121.044 90.9416 120.553 89.7567 120.987 88.7089L128.258 71.1684C128.443 70.6985 128.802 70.318 129.26 70.1062C129.718 69.8944 130.24 69.8676 130.718 70.0316Z" fill="#418DF9"/>
<path d="M139.799 70.74C139.962 70.7355 140.123 70.763 140.275 70.821C140.427 70.879 140.565 70.9663 140.683 71.0779C140.801 71.1896 140.896 71.3233 140.962 71.4716C141.028 71.6198 141.065 71.7797 141.069 71.942L141.641 84.2892C141.66 84.641 141.538 84.9857 141.303 85.2478C141.067 85.51 140.738 85.668 140.386 85.6874L139.384 85.7222C139.213 85.7266 139.042 85.6954 138.883 85.6306C138.724 85.5658 138.581 85.4688 138.461 85.3457C138.342 85.2225 138.249 85.076 138.19 84.9153C138.13 84.7546 138.104 84.5832 138.113 84.412L138.544 72.0299C138.552 71.6965 138.687 71.3786 138.919 71.1396C139.152 70.9005 139.466 70.7579 139.799 70.74Z" fill="#418DF9"/>
<path d="M146.371 65.4428C147.223 64.8168 148.512 65.1674 149.292 66.2374L163.152 85.2355C163.98 86.3705 163.916 87.8696 163.012 88.5335L161.752 89.4586C160.848 90.1225 159.467 89.6837 158.715 88.4936L146.114 68.5696C145.406 67.4481 145.519 66.0686 146.371 65.4428Z" fill="#418DF9"/>
</g>
<defs>
<linearGradient id="paint0_linear_1_3" x1="142.777" y1="39.3158" x2="167.465" y2="30.0759" gradientUnits="userSpaceOnUse">
<stop stop-color="#DBDBDB"/>
<stop offset="1" stop-color="#757575"/>
</linearGradient>
<linearGradient id="paint1_linear_1_3" x1="147.569" y1="51.316" x2="172.258" y2="42.076" gradientUnits="userSpaceOnUse">
<stop stop-color="#DBDBDB"/>
<stop offset="1" stop-color="#757575"/>
</linearGradient>
</defs>
</svg>
