<svg width="2746" height="711" viewBox="0 0 2746 711" fill="none" xmlns="http://www.w3.org/2000/svg">
<circle cx="64.5626" cy="64.5626" r="64.5626" transform="matrix(1 8.74228e-08 8.74228e-08 -1 339.212 258.25)" fill="url(#paint0_angular_807_271)" fill-opacity="0.6"/>
<circle cx="64.5626" cy="64.5626" r="64.5626" transform="matrix(-1 -8.74228e-08 -8.74228e-08 1 468.337 0)" fill="url(#paint1_angular_807_271)" fill-opacity="0.6"/>
<circle cx="64.5626" cy="64.5626" r="64.5626" transform="matrix(-1 -8.74228e-08 -8.74228e-08 1 693.125 0)" fill="url(#paint2_angular_807_271)" fill-opacity="0.6"/>
<circle cx="403.775" cy="451.939" r="64.5626" fill="url(#paint3_angular_807_271)" fill-opacity="0.6"/>
<circle cx="403.774" cy="581.437" r="64.5626" transform="rotate(180 403.774 581.437)" fill="url(#paint4_angular_807_271)" fill-opacity="0.6"/>
<circle cx="64.5626" cy="64.5626" r="64.5626" transform="matrix(-1 8.74228e-08 8.74228e-08 1 358.207 193.314)" fill="url(#paint5_angular_807_271)" fill-opacity="0.6"/>
<circle cx="64.5629" cy="129.563" r="64.5626" transform="rotate(-180 64.5629 129.563)" fill="url(#paint6_angular_807_271)" fill-opacity="0.6"/>
<circle cx="516.113" cy="257.877" r="64.5626" fill="url(#paint7_angular_807_271)" fill-opacity="0.6"/>
<circle cx="64.5626" cy="64.5626" r="64.5626" transform="matrix(1 8.74228e-08 8.74228e-08 -1 229.082 451.565)" fill="url(#paint8_angular_807_271)" fill-opacity="0.6"/>
<circle cx="64.5627" cy="259.563" r="64.5626" fill="url(#paint9_angular_807_271)" fill-opacity="0.6"/>
<circle cx="177.563" cy="580.563" r="64.5626" transform="rotate(180 177.563 580.563)" fill="url(#paint10_angular_807_271)" fill-opacity="0.6"/>
<circle cx="64.5626" cy="64.5626" r="64.5626" transform="matrix(-1 -8.74228e-08 -8.74228e-08 1 241.125 0)" fill="url(#paint11_angular_807_271)" fill-opacity="0.6"/>
<circle cx="516.113" cy="387.002" r="64.5626" transform="rotate(180 516.113 387.002)" fill="url(#paint12_angular_807_271)" fill-opacity="0.6"/>
<circle cx="628.453" cy="324.104" r="64.5626" transform="rotate(90 628.453 324.104)" fill="url(#paint13_angular_807_271)" fill-opacity="0.6"/>
<circle cx="517.031" cy="517.045" r="64.5626" transform="rotate(-120 517.031 517.045)" fill="url(#paint14_angular_807_271)" fill-opacity="0.6"/>
<circle cx="64.5626" cy="64.5626" r="64.5626" transform="matrix(-0.5 0.866025 0.866025 0.5 493.399 41.3203)" fill="url(#paint15_angular_807_271)" fill-opacity="0.6"/>
<circle cx="64.5626" cy="64.5626" r="64.5626" transform="matrix(0.5 -0.866025 -0.866025 -0.5 313.636 605.239)" fill="url(#paint16_angular_807_271)" fill-opacity="0.6"/>
<circle cx="290.005" cy="129.515" r="64.5626" transform="rotate(60 290.005 129.515)" fill="url(#paint17_angular_807_271)" fill-opacity="0.6"/>
<circle cx="64.5626" cy="64.5626" r="64.5626" transform="matrix(-0.5 -0.866025 -0.866025 0.5 717.036 475.959)" fill="url(#paint18_angular_807_271)" fill-opacity="0.6"/>
<circle cx="628.841" cy="194.232" r="64.5626" transform="rotate(120 628.841 194.232)" fill="url(#paint19_angular_807_271)" fill-opacity="0.6"/>
<circle cx="178.194" cy="452.327" r="64.5626" transform="rotate(-60 178.194 452.327)" fill="url(#paint20_angular_807_271)" fill-opacity="0.6"/>
<circle cx="64.5626" cy="64.5626" r="64.5626" transform="matrix(0.5 0.866025 0.866025 -0.5 90 170.6)" fill="url(#paint21_angular_807_271)" fill-opacity="0.6"/>
<circle cx="179.096" cy="324.104" r="64.5626" transform="rotate(-90 179.096 324.104)" fill="url(#paint22_angular_807_271)" fill-opacity="0.6"/>
<circle cx="403.563" cy="324.104" r="64.5626" transform="rotate(-90 403.563 324.104)" fill="url(#paint23_angular_807_271)" fill-opacity="0.6"/>
<circle cx="64.5626" cy="64.5626" r="64.5626" transform="matrix(1 8.74228e-08 8.74228e-08 -1 225 710.125)" fill="url(#paint24_angular_807_271)" fill-opacity="0.6"/>
<circle cx="64.5626" cy="64.5626" r="64.5626" transform="matrix(1 8.74228e-08 8.74228e-08 -1 452 709.125)" fill="url(#paint25_angular_807_271)" fill-opacity="0.6"/>
<circle cx="64.5626" cy="64.5626" r="64.5626" transform="matrix(1 8.74228e-08 8.74228e-08 -1 565 647.125)" fill="url(#paint26_angular_807_271)" fill-opacity="0.6"/>
<circle cx="64.5626" cy="64.5626" r="64.5626" transform="matrix(1 8.74228e-08 8.74228e-08 -1 1691.21 258.25)" fill="url(#paint27_angular_807_271)" fill-opacity="0.6"/>
<circle cx="64.5626" cy="64.5626" r="64.5626" transform="matrix(-1 -8.74228e-08 -8.74228e-08 1 1820.34 0)" fill="url(#paint28_angular_807_271)" fill-opacity="0.6"/>
<circle cx="64.5626" cy="64.5626" r="64.5626" transform="matrix(-1 -8.74228e-08 -8.74228e-08 1 2045.13 0)" fill="url(#paint29_angular_807_271)" fill-opacity="0.6"/>
<circle cx="1755.77" cy="451.939" r="64.5626" fill="url(#paint30_angular_807_271)" fill-opacity="0.6"/>
<circle cx="1755.77" cy="581.437" r="64.5626" transform="rotate(180 1755.77 581.437)" fill="url(#paint31_angular_807_271)" fill-opacity="0.6"/>
<circle cx="64.5626" cy="64.5626" r="64.5626" transform="matrix(-1 8.74228e-08 8.74228e-08 1 1710.21 193.314)" fill="url(#paint32_angular_807_271)" fill-opacity="0.6"/>
<circle cx="1416.56" cy="129.563" r="64.5626" transform="rotate(-180 1416.56 129.563)" fill="url(#paint33_angular_807_271)" fill-opacity="0.6"/>
<circle cx="1868.11" cy="257.877" r="64.5626" fill="url(#paint34_angular_807_271)" fill-opacity="0.6"/>
<circle cx="64.5626" cy="64.5626" r="64.5626" transform="matrix(1 8.74228e-08 8.74228e-08 -1 1581.08 451.565)" fill="url(#paint35_angular_807_271)" fill-opacity="0.6"/>
<circle cx="1416.56" cy="259.563" r="64.5626" fill="url(#paint36_angular_807_271)" fill-opacity="0.6"/>
<circle cx="1529.56" cy="580.563" r="64.5626" transform="rotate(180 1529.56 580.563)" fill="url(#paint37_angular_807_271)" fill-opacity="0.6"/>
<circle cx="64.5626" cy="64.5626" r="64.5626" transform="matrix(-1 -8.74228e-08 -8.74228e-08 1 1593.13 0)" fill="url(#paint38_angular_807_271)" fill-opacity="0.6"/>
<circle cx="1868.11" cy="387.002" r="64.5626" transform="rotate(180 1868.11 387.002)" fill="url(#paint39_angular_807_271)" fill-opacity="0.6"/>
<circle cx="1980.45" cy="324.104" r="64.5626" transform="rotate(90 1980.45 324.104)" fill="url(#paint40_angular_807_271)" fill-opacity="0.6"/>
<circle cx="1869.03" cy="517.045" r="64.5626" transform="rotate(-120 1869.03 517.045)" fill="url(#paint41_angular_807_271)" fill-opacity="0.6"/>
<circle cx="64.5626" cy="64.5626" r="64.5626" transform="matrix(-0.5 0.866025 0.866025 0.5 1845.4 41.3203)" fill="url(#paint42_angular_807_271)" fill-opacity="0.6"/>
<circle cx="64.5626" cy="64.5626" r="64.5626" transform="matrix(0.5 -0.866025 -0.866025 -0.5 1665.64 605.239)" fill="url(#paint43_angular_807_271)" fill-opacity="0.6"/>
<circle cx="1642" cy="129.515" r="64.5626" transform="rotate(60 1642 129.515)" fill="url(#paint44_angular_807_271)" fill-opacity="0.6"/>
<circle cx="64.5626" cy="64.5626" r="64.5626" transform="matrix(-0.5 -0.866025 -0.866025 0.5 2069.04 475.959)" fill="url(#paint45_angular_807_271)" fill-opacity="0.6"/>
<circle cx="1980.84" cy="194.232" r="64.5626" transform="rotate(120 1980.84 194.232)" fill="url(#paint46_angular_807_271)" fill-opacity="0.6"/>
<circle cx="1530.19" cy="452.327" r="64.5626" transform="rotate(-60 1530.19 452.327)" fill="url(#paint47_angular_807_271)" fill-opacity="0.6"/>
<circle cx="64.5626" cy="64.5626" r="64.5626" transform="matrix(0.5 0.866025 0.866025 -0.5 1442 170.6)" fill="url(#paint48_angular_807_271)" fill-opacity="0.6"/>
<circle cx="1531.1" cy="324.104" r="64.5626" transform="rotate(-90 1531.1 324.104)" fill="url(#paint49_angular_807_271)" fill-opacity="0.6"/>
<circle cx="1755.56" cy="324.104" r="64.5626" transform="rotate(-90 1755.56 324.104)" fill="url(#paint50_angular_807_271)" fill-opacity="0.6"/>
<circle cx="64.5626" cy="64.5626" r="64.5626" transform="matrix(1 8.74228e-08 8.74228e-08 -1 1577 710.125)" fill="url(#paint51_angular_807_271)" fill-opacity="0.6"/>
<circle cx="64.5626" cy="64.5626" r="64.5626" transform="matrix(1 8.74228e-08 8.74228e-08 -1 1804 709.125)" fill="url(#paint52_angular_807_271)" fill-opacity="0.6"/>
<circle cx="64.5626" cy="64.5626" r="64.5626" transform="matrix(1 8.74228e-08 8.74228e-08 -1 1917 647.125)" fill="url(#paint53_angular_807_271)" fill-opacity="0.6"/>
<circle cx="64.5626" cy="64.5626" r="64.5626" transform="matrix(1 8.74228e-08 8.74228e-08 -1 676 709.125)" fill="url(#paint54_angular_807_271)" fill-opacity="0.6"/>
<circle cx="64.5626" cy="64.5626" r="64.5626" transform="matrix(1 8.74228e-08 8.74228e-08 -1 2028 709.125)" fill="url(#paint55_angular_807_271)" fill-opacity="0.6"/>
<circle cx="64.5626" cy="64.5626" r="64.5626" transform="matrix(1 8.74228e-08 8.74228e-08 -1 1015.21 258.25)" fill="url(#paint56_angular_807_271)" fill-opacity="0.6"/>
<circle cx="64.5626" cy="64.5626" r="64.5626" transform="matrix(-1 -8.74228e-08 -8.74228e-08 1 1144.34 0)" fill="url(#paint57_angular_807_271)" fill-opacity="0.6"/>
<circle cx="64.5626" cy="64.5626" r="64.5626" transform="matrix(-1 -8.74228e-08 -8.74228e-08 1 1369.13 0)" fill="url(#paint58_angular_807_271)" fill-opacity="0.6"/>
<circle cx="1079.77" cy="451.939" r="64.5626" fill="url(#paint59_angular_807_271)" fill-opacity="0.6"/>
<circle cx="1079.77" cy="581.437" r="64.5626" transform="rotate(180 1079.77 581.437)" fill="url(#paint60_angular_807_271)" fill-opacity="0.6"/>
<circle cx="64.5626" cy="64.5626" r="64.5626" transform="matrix(-1 8.74228e-08 8.74228e-08 1 1034.21 193.314)" fill="url(#paint61_angular_807_271)" fill-opacity="0.6"/>
<circle cx="740.563" cy="129.563" r="64.5626" transform="rotate(-180 740.563 129.563)" fill="url(#paint62_angular_807_271)" fill-opacity="0.6"/>
<circle cx="1192.11" cy="257.877" r="64.5626" fill="url(#paint63_angular_807_271)" fill-opacity="0.6"/>
<circle cx="64.5626" cy="64.5626" r="64.5626" transform="matrix(1 8.74228e-08 8.74228e-08 -1 905.082 451.565)" fill="url(#paint64_angular_807_271)" fill-opacity="0.6"/>
<circle cx="740.563" cy="259.563" r="64.5626" fill="url(#paint65_angular_807_271)" fill-opacity="0.6"/>
<circle cx="853.563" cy="580.563" r="64.5626" transform="rotate(180 853.563 580.563)" fill="url(#paint66_angular_807_271)" fill-opacity="0.6"/>
<circle cx="64.5626" cy="64.5626" r="64.5626" transform="matrix(-1 -8.74228e-08 -8.74228e-08 1 917.125 0)" fill="url(#paint67_angular_807_271)" fill-opacity="0.6"/>
<circle cx="1192.11" cy="387.002" r="64.5626" transform="rotate(180 1192.11 387.002)" fill="url(#paint68_angular_807_271)" fill-opacity="0.6"/>
<circle cx="1304.45" cy="324.104" r="64.5626" transform="rotate(90 1304.45 324.104)" fill="url(#paint69_angular_807_271)" fill-opacity="0.6"/>
<circle cx="1193.03" cy="517.045" r="64.5626" transform="rotate(-120 1193.03 517.045)" fill="url(#paint70_angular_807_271)" fill-opacity="0.6"/>
<circle cx="64.5626" cy="64.5626" r="64.5626" transform="matrix(-0.5 0.866025 0.866025 0.5 1169.4 41.3203)" fill="url(#paint71_angular_807_271)" fill-opacity="0.6"/>
<circle cx="64.5626" cy="64.5626" r="64.5626" transform="matrix(0.5 -0.866025 -0.866025 -0.5 989.636 605.239)" fill="url(#paint72_angular_807_271)" fill-opacity="0.6"/>
<circle cx="966.005" cy="129.515" r="64.5626" transform="rotate(60 966.005 129.515)" fill="url(#paint73_angular_807_271)" fill-opacity="0.6"/>
<circle cx="64.5626" cy="64.5626" r="64.5626" transform="matrix(-0.5 -0.866025 -0.866025 0.5 1393.04 475.959)" fill="url(#paint74_angular_807_271)" fill-opacity="0.6"/>
<circle cx="1304.84" cy="194.232" r="64.5626" transform="rotate(120 1304.84 194.232)" fill="url(#paint75_angular_807_271)" fill-opacity="0.6"/>
<circle cx="854.194" cy="452.327" r="64.5626" transform="rotate(-60 854.194 452.327)" fill="url(#paint76_angular_807_271)" fill-opacity="0.6"/>
<circle cx="64.5626" cy="64.5626" r="64.5626" transform="matrix(0.5 0.866025 0.866025 -0.5 766 170.6)" fill="url(#paint77_angular_807_271)" fill-opacity="0.6"/>
<circle cx="855.096" cy="324.104" r="64.5626" transform="rotate(-90 855.096 324.104)" fill="url(#paint78_angular_807_271)" fill-opacity="0.6"/>
<circle cx="1079.56" cy="324.104" r="64.5626" transform="rotate(-90 1079.56 324.104)" fill="url(#paint79_angular_807_271)" fill-opacity="0.6"/>
<circle cx="64.5626" cy="64.5626" r="64.5626" transform="matrix(1 8.74228e-08 8.74228e-08 -1 901 710.125)" fill="url(#paint80_angular_807_271)" fill-opacity="0.6"/>
<circle cx="64.5626" cy="64.5626" r="64.5626" transform="matrix(1 8.74228e-08 8.74228e-08 -1 1128 709.125)" fill="url(#paint81_angular_807_271)" fill-opacity="0.6"/>
<circle cx="64.5626" cy="64.5626" r="64.5626" transform="matrix(1 8.74228e-08 8.74228e-08 -1 1353 709.125)" fill="url(#paint82_angular_807_271)" fill-opacity="0.6"/>
<circle cx="64.5626" cy="64.5626" r="64.5626" transform="matrix(1 8.74228e-08 8.74228e-08 -1 1240 646.125)" fill="url(#paint83_angular_807_271)" fill-opacity="0.6"/>
<circle cx="64.5626" cy="64.5626" r="64.5626" transform="matrix(1 8.74228e-08 8.74228e-08 -1 2367.21 258.25)" fill="url(#paint84_angular_807_271)" fill-opacity="0.6"/>
<circle cx="64.5626" cy="64.5626" r="64.5626" transform="matrix(-1 -8.74228e-08 -8.74228e-08 1 2496.34 0)" fill="url(#paint85_angular_807_271)" fill-opacity="0.6"/>
<circle cx="2431.77" cy="451.939" r="64.5626" fill="url(#paint86_angular_807_271)" fill-opacity="0.6"/>
<circle cx="2431.77" cy="581.437" r="64.5626" transform="rotate(180 2431.77 581.437)" fill="url(#paint87_angular_807_271)" fill-opacity="0.6"/>
<circle cx="64.5626" cy="64.5626" r="64.5626" transform="matrix(-1 8.74228e-08 8.74228e-08 1 2386.21 193.314)" fill="url(#paint88_angular_807_271)" fill-opacity="0.6"/>
<circle cx="2092.56" cy="129.563" r="64.5626" transform="rotate(-180 2092.56 129.563)" fill="url(#paint89_angular_807_271)" fill-opacity="0.6"/>
<circle cx="2544.11" cy="257.877" r="64.5626" fill="url(#paint90_angular_807_271)" fill-opacity="0.6"/>
<circle cx="64.5626" cy="64.5626" r="64.5626" transform="matrix(1 8.74228e-08 8.74228e-08 -1 2257.08 451.565)" fill="url(#paint91_angular_807_271)" fill-opacity="0.6"/>
<circle cx="2092.56" cy="259.563" r="64.5626" fill="url(#paint92_angular_807_271)" fill-opacity="0.6"/>
<circle cx="2205.56" cy="580.563" r="64.5626" transform="rotate(180 2205.56 580.563)" fill="url(#paint93_angular_807_271)" fill-opacity="0.6"/>
<circle cx="64.5626" cy="64.5626" r="64.5626" transform="matrix(-1 -8.74228e-08 -8.74228e-08 1 2269.13 0)" fill="url(#paint94_angular_807_271)" fill-opacity="0.6"/>
<circle cx="2544.11" cy="387.002" r="64.5626" transform="rotate(180 2544.11 387.002)" fill="url(#paint95_angular_807_271)" fill-opacity="0.6"/>
<circle cx="2656.45" cy="324.104" r="64.5626" transform="rotate(90 2656.45 324.104)" fill="url(#paint96_angular_807_271)" fill-opacity="0.6"/>
<circle cx="2545.03" cy="517.045" r="64.5626" transform="rotate(-120 2545.03 517.045)" fill="url(#paint97_angular_807_271)" fill-opacity="0.6"/>
<circle cx="64.5626" cy="64.5626" r="64.5626" transform="matrix(-0.5 0.866025 0.866025 0.5 2521.4 41.3203)" fill="url(#paint98_angular_807_271)" fill-opacity="0.6"/>
<circle cx="64.5626" cy="64.5626" r="64.5626" transform="matrix(0.5 -0.866025 -0.866025 -0.5 2341.64 605.239)" fill="url(#paint99_angular_807_271)" fill-opacity="0.6"/>
<circle cx="2318.01" cy="129.515" r="64.5626" transform="rotate(60 2318.01 129.515)" fill="url(#paint100_angular_807_271)" fill-opacity="0.6"/>
<circle cx="64.5626" cy="64.5626" r="64.5626" transform="matrix(-0.5 -0.866025 -0.866025 0.5 2745.04 475.959)" fill="url(#paint101_angular_807_271)" fill-opacity="0.6"/>
<circle cx="2656.84" cy="194.232" r="64.5626" transform="rotate(120 2656.84 194.232)" fill="url(#paint102_angular_807_271)" fill-opacity="0.6"/>
<circle cx="2206.19" cy="452.327" r="64.5626" transform="rotate(-60 2206.19 452.327)" fill="url(#paint103_angular_807_271)" fill-opacity="0.6"/>
<circle cx="64.5626" cy="64.5626" r="64.5626" transform="matrix(0.5 0.866025 0.866025 -0.5 2118 170.6)" fill="url(#paint104_angular_807_271)" fill-opacity="0.6"/>
<circle cx="2207.1" cy="324.104" r="64.5626" transform="rotate(-90 2207.1 324.104)" fill="url(#paint105_angular_807_271)" fill-opacity="0.6"/>
<circle cx="2431.56" cy="324.104" r="64.5626" transform="rotate(-90 2431.56 324.104)" fill="url(#paint106_angular_807_271)" fill-opacity="0.6"/>
<circle cx="64.5626" cy="64.5626" r="64.5626" transform="matrix(1 8.74228e-08 8.74228e-08 -1 2253 710.125)" fill="url(#paint107_angular_807_271)" fill-opacity="0.6"/>
<circle cx="64.5626" cy="64.5626" r="64.5626" transform="matrix(1 8.74228e-08 8.74228e-08 -1 2480 709.125)" fill="url(#paint108_angular_807_271)" fill-opacity="0.6"/>
<circle cx="64.5626" cy="64.5626" r="64.5626" transform="matrix(-1 8.74228e-08 8.74228e-08 1 129.125 323)" fill="url(#paint109_angular_807_271)" fill-opacity="0.6"/>
<circle cx="64.5626" cy="64.5626" r="64.5626" transform="matrix(-1 8.74228e-08 8.74228e-08 1 1481.13 323)" fill="url(#paint110_angular_807_271)" fill-opacity="0.6"/>
<circle cx="64.5626" cy="64.5626" r="64.5626" transform="matrix(-1 8.74228e-08 8.74228e-08 1 805.125 323)" fill="url(#paint111_angular_807_271)" fill-opacity="0.6"/>
<circle cx="64.5626" cy="64.5626" r="64.5626" transform="matrix(-1 8.74228e-08 8.74228e-08 1 2157.13 323)" fill="url(#paint112_angular_807_271)" fill-opacity="0.6"/>
<circle cx="64.5626" cy="64.5626" r="64.5626" transform="matrix(1 8.74228e-08 8.74228e-08 -1 0 581.125)" fill="url(#paint113_angular_807_271)" fill-opacity="0.6"/>
<circle cx="64.5626" cy="64.5626" r="64.5626" transform="matrix(1 8.74228e-08 8.74228e-08 -1 1352 581.125)" fill="url(#paint114_angular_807_271)" fill-opacity="0.6"/>
<circle cx="64.5626" cy="64.5626" r="64.5626" transform="matrix(1 8.74228e-08 8.74228e-08 -1 676 581.125)" fill="url(#paint115_angular_807_271)" fill-opacity="0.6"/>
<circle cx="64.5626" cy="64.5626" r="64.5626" transform="matrix(1 8.74228e-08 8.74228e-08 -1 2028 581.125)" fill="url(#paint116_angular_807_271)" fill-opacity="0.6"/>
<defs>
<radialGradient id="paint0_angular_807_271" cx="0" cy="0" r="1" gradientUnits="userSpaceOnUse" gradientTransform="translate(64.5626 64.5626) rotate(90) scale(64.5626)">
<stop stop-opacity="0"/>
<stop offset="1" stop-color="#505050"/>
</radialGradient>
<radialGradient id="paint1_angular_807_271" cx="0" cy="0" r="1" gradientUnits="userSpaceOnUse" gradientTransform="translate(64.5626 64.5626) rotate(90) scale(64.5626)">
<stop stop-opacity="0"/>
<stop offset="1" stop-color="#505050"/>
</radialGradient>
<radialGradient id="paint2_angular_807_271" cx="0" cy="0" r="1" gradientUnits="userSpaceOnUse" gradientTransform="translate(64.5626 64.5626) rotate(90) scale(64.5626)">
<stop stop-opacity="0"/>
<stop offset="1" stop-color="#505050"/>
</radialGradient>
<radialGradient id="paint3_angular_807_271" cx="0" cy="0" r="1" gradientUnits="userSpaceOnUse" gradientTransform="translate(403.775 451.939) rotate(90) scale(64.5626)">
<stop stop-opacity="0"/>
<stop offset="1" stop-color="#505050"/>
</radialGradient>
<radialGradient id="paint4_angular_807_271" cx="0" cy="0" r="1" gradientUnits="userSpaceOnUse" gradientTransform="translate(403.774 581.437) rotate(90) scale(64.5626)">
<stop stop-opacity="0"/>
<stop offset="1" stop-color="#505050"/>
</radialGradient>
<radialGradient id="paint5_angular_807_271" cx="0" cy="0" r="1" gradientUnits="userSpaceOnUse" gradientTransform="translate(64.5626 64.5626) rotate(90) scale(64.5626)">
<stop stop-opacity="0"/>
<stop offset="1" stop-color="#505050"/>
</radialGradient>
<radialGradient id="paint6_angular_807_271" cx="0" cy="0" r="1" gradientUnits="userSpaceOnUse" gradientTransform="translate(64.5629 129.563) rotate(90) scale(64.5626)">
<stop stop-opacity="0"/>
<stop offset="1" stop-color="#505050"/>
</radialGradient>
<radialGradient id="paint7_angular_807_271" cx="0" cy="0" r="1" gradientUnits="userSpaceOnUse" gradientTransform="translate(516.113 257.877) rotate(90) scale(64.5626)">
<stop stop-opacity="0"/>
<stop offset="1" stop-color="#505050"/>
</radialGradient>
<radialGradient id="paint8_angular_807_271" cx="0" cy="0" r="1" gradientUnits="userSpaceOnUse" gradientTransform="translate(64.5626 64.5626) rotate(90) scale(64.5626)">
<stop stop-opacity="0"/>
<stop offset="1" stop-color="#505050"/>
</radialGradient>
<radialGradient id="paint9_angular_807_271" cx="0" cy="0" r="1" gradientUnits="userSpaceOnUse" gradientTransform="translate(64.5627 259.563) rotate(90) scale(64.5626)">
<stop stop-opacity="0"/>
<stop offset="1" stop-color="#505050"/>
</radialGradient>
<radialGradient id="paint10_angular_807_271" cx="0" cy="0" r="1" gradientUnits="userSpaceOnUse" gradientTransform="translate(177.563 580.563) rotate(90) scale(64.5626)">
<stop stop-opacity="0"/>
<stop offset="1" stop-color="#505050"/>
</radialGradient>
<radialGradient id="paint11_angular_807_271" cx="0" cy="0" r="1" gradientUnits="userSpaceOnUse" gradientTransform="translate(64.5626 64.5626) rotate(90) scale(64.5626)">
<stop stop-opacity="0"/>
<stop offset="1" stop-color="#505050"/>
</radialGradient>
<radialGradient id="paint12_angular_807_271" cx="0" cy="0" r="1" gradientUnits="userSpaceOnUse" gradientTransform="translate(516.113 387.002) rotate(90) scale(64.5626)">
<stop stop-opacity="0"/>
<stop offset="1" stop-color="#505050"/>
</radialGradient>
<radialGradient id="paint13_angular_807_271" cx="0" cy="0" r="1" gradientUnits="userSpaceOnUse" gradientTransform="translate(628.453 324.104) rotate(90) scale(64.5626)">
<stop stop-opacity="0"/>
<stop offset="1" stop-color="#505050"/>
</radialGradient>
<radialGradient id="paint14_angular_807_271" cx="0" cy="0" r="1" gradientUnits="userSpaceOnUse" gradientTransform="translate(517.031 517.045) rotate(90) scale(64.5626)">
<stop stop-opacity="0"/>
<stop offset="1" stop-color="#505050"/>
</radialGradient>
<radialGradient id="paint15_angular_807_271" cx="0" cy="0" r="1" gradientUnits="userSpaceOnUse" gradientTransform="translate(64.5626 64.5626) rotate(90) scale(64.5626)">
<stop stop-opacity="0"/>
<stop offset="1" stop-color="#505050"/>
</radialGradient>
<radialGradient id="paint16_angular_807_271" cx="0" cy="0" r="1" gradientUnits="userSpaceOnUse" gradientTransform="translate(64.5626 64.5626) rotate(90) scale(64.5626)">
<stop stop-opacity="0"/>
<stop offset="1" stop-color="#505050"/>
</radialGradient>
<radialGradient id="paint17_angular_807_271" cx="0" cy="0" r="1" gradientUnits="userSpaceOnUse" gradientTransform="translate(290.005 129.515) rotate(90) scale(64.5626)">
<stop stop-opacity="0"/>
<stop offset="1" stop-color="#505050"/>
</radialGradient>
<radialGradient id="paint18_angular_807_271" cx="0" cy="0" r="1" gradientUnits="userSpaceOnUse" gradientTransform="translate(64.5626 64.5626) rotate(90) scale(64.5626)">
<stop stop-opacity="0"/>
<stop offset="1" stop-color="#505050"/>
</radialGradient>
<radialGradient id="paint19_angular_807_271" cx="0" cy="0" r="1" gradientUnits="userSpaceOnUse" gradientTransform="translate(628.841 194.232) rotate(90) scale(64.5626)">
<stop stop-opacity="0"/>
<stop offset="1" stop-color="#505050"/>
</radialGradient>
<radialGradient id="paint20_angular_807_271" cx="0" cy="0" r="1" gradientUnits="userSpaceOnUse" gradientTransform="translate(178.194 452.327) rotate(90) scale(64.5626)">
<stop stop-opacity="0"/>
<stop offset="1" stop-color="#505050"/>
</radialGradient>
<radialGradient id="paint21_angular_807_271" cx="0" cy="0" r="1" gradientUnits="userSpaceOnUse" gradientTransform="translate(64.5626 64.5626) rotate(90) scale(64.5626)">
<stop stop-opacity="0"/>
<stop offset="1" stop-color="#505050"/>
</radialGradient>
<radialGradient id="paint22_angular_807_271" cx="0" cy="0" r="1" gradientUnits="userSpaceOnUse" gradientTransform="translate(179.096 324.104) rotate(90) scale(64.5626)">
<stop stop-opacity="0"/>
<stop offset="1" stop-color="#505050"/>
</radialGradient>
<radialGradient id="paint23_angular_807_271" cx="0" cy="0" r="1" gradientUnits="userSpaceOnUse" gradientTransform="translate(403.563 324.104) rotate(90) scale(64.5626)">
<stop stop-opacity="0"/>
<stop offset="1" stop-color="#505050"/>
</radialGradient>
<radialGradient id="paint24_angular_807_271" cx="0" cy="0" r="1" gradientUnits="userSpaceOnUse" gradientTransform="translate(64.5626 64.5626) rotate(90) scale(64.5626)">
<stop stop-opacity="0"/>
<stop offset="1" stop-color="#505050"/>
</radialGradient>
<radialGradient id="paint25_angular_807_271" cx="0" cy="0" r="1" gradientUnits="userSpaceOnUse" gradientTransform="translate(64.5626 64.5626) rotate(90) scale(64.5626)">
<stop stop-opacity="0"/>
<stop offset="1" stop-color="#505050"/>
</radialGradient>
<radialGradient id="paint26_angular_807_271" cx="0" cy="0" r="1" gradientUnits="userSpaceOnUse" gradientTransform="translate(64.5626 64.5626) rotate(90) scale(64.5626)">
<stop stop-opacity="0"/>
<stop offset="1" stop-color="#505050"/>
</radialGradient>
<radialGradient id="paint27_angular_807_271" cx="0" cy="0" r="1" gradientUnits="userSpaceOnUse" gradientTransform="translate(64.5626 64.5626) rotate(90) scale(64.5626)">
<stop stop-opacity="0"/>
<stop offset="1" stop-color="#505050"/>
</radialGradient>
<radialGradient id="paint28_angular_807_271" cx="0" cy="0" r="1" gradientUnits="userSpaceOnUse" gradientTransform="translate(64.5626 64.5626) rotate(90) scale(64.5626)">
<stop stop-opacity="0"/>
<stop offset="1" stop-color="#505050"/>
</radialGradient>
<radialGradient id="paint29_angular_807_271" cx="0" cy="0" r="1" gradientUnits="userSpaceOnUse" gradientTransform="translate(64.5626 64.5626) rotate(90) scale(64.5626)">
<stop stop-opacity="0"/>
<stop offset="1" stop-color="#505050"/>
</radialGradient>
<radialGradient id="paint30_angular_807_271" cx="0" cy="0" r="1" gradientUnits="userSpaceOnUse" gradientTransform="translate(1755.77 451.939) rotate(90) scale(64.5626)">
<stop stop-opacity="0"/>
<stop offset="1" stop-color="#505050"/>
</radialGradient>
<radialGradient id="paint31_angular_807_271" cx="0" cy="0" r="1" gradientUnits="userSpaceOnUse" gradientTransform="translate(1755.77 581.437) rotate(90) scale(64.5626)">
<stop stop-opacity="0"/>
<stop offset="1" stop-color="#505050"/>
</radialGradient>
<radialGradient id="paint32_angular_807_271" cx="0" cy="0" r="1" gradientUnits="userSpaceOnUse" gradientTransform="translate(64.5626 64.5626) rotate(90) scale(64.5626)">
<stop stop-opacity="0"/>
<stop offset="1" stop-color="#505050"/>
</radialGradient>
<radialGradient id="paint33_angular_807_271" cx="0" cy="0" r="1" gradientUnits="userSpaceOnUse" gradientTransform="translate(1416.56 129.563) rotate(90) scale(64.5626)">
<stop stop-opacity="0"/>
<stop offset="1" stop-color="#505050"/>
</radialGradient>
<radialGradient id="paint34_angular_807_271" cx="0" cy="0" r="1" gradientUnits="userSpaceOnUse" gradientTransform="translate(1868.11 257.877) rotate(90) scale(64.5626)">
<stop stop-opacity="0"/>
<stop offset="1" stop-color="#505050"/>
</radialGradient>
<radialGradient id="paint35_angular_807_271" cx="0" cy="0" r="1" gradientUnits="userSpaceOnUse" gradientTransform="translate(64.5626 64.5626) rotate(90) scale(64.5626)">
<stop stop-opacity="0"/>
<stop offset="1" stop-color="#505050"/>
</radialGradient>
<radialGradient id="paint36_angular_807_271" cx="0" cy="0" r="1" gradientUnits="userSpaceOnUse" gradientTransform="translate(1416.56 259.563) rotate(90) scale(64.5626)">
<stop stop-opacity="0"/>
<stop offset="1" stop-color="#505050"/>
</radialGradient>
<radialGradient id="paint37_angular_807_271" cx="0" cy="0" r="1" gradientUnits="userSpaceOnUse" gradientTransform="translate(1529.56 580.563) rotate(90) scale(64.5626)">
<stop stop-opacity="0"/>
<stop offset="1" stop-color="#505050"/>
</radialGradient>
<radialGradient id="paint38_angular_807_271" cx="0" cy="0" r="1" gradientUnits="userSpaceOnUse" gradientTransform="translate(64.5626 64.5626) rotate(90) scale(64.5626)">
<stop stop-opacity="0"/>
<stop offset="1" stop-color="#505050"/>
</radialGradient>
<radialGradient id="paint39_angular_807_271" cx="0" cy="0" r="1" gradientUnits="userSpaceOnUse" gradientTransform="translate(1868.11 387.002) rotate(90) scale(64.5626)">
<stop stop-opacity="0"/>
<stop offset="1" stop-color="#505050"/>
</radialGradient>
<radialGradient id="paint40_angular_807_271" cx="0" cy="0" r="1" gradientUnits="userSpaceOnUse" gradientTransform="translate(1980.45 324.104) rotate(90) scale(64.5626)">
<stop stop-opacity="0"/>
<stop offset="1" stop-color="#505050"/>
</radialGradient>
<radialGradient id="paint41_angular_807_271" cx="0" cy="0" r="1" gradientUnits="userSpaceOnUse" gradientTransform="translate(1869.03 517.045) rotate(90) scale(64.5626)">
<stop stop-opacity="0"/>
<stop offset="1" stop-color="#505050"/>
</radialGradient>
<radialGradient id="paint42_angular_807_271" cx="0" cy="0" r="1" gradientUnits="userSpaceOnUse" gradientTransform="translate(64.5626 64.5626) rotate(90) scale(64.5626)">
<stop stop-opacity="0"/>
<stop offset="1" stop-color="#505050"/>
</radialGradient>
<radialGradient id="paint43_angular_807_271" cx="0" cy="0" r="1" gradientUnits="userSpaceOnUse" gradientTransform="translate(64.5626 64.5626) rotate(90) scale(64.5626)">
<stop stop-opacity="0"/>
<stop offset="1" stop-color="#505050"/>
</radialGradient>
<radialGradient id="paint44_angular_807_271" cx="0" cy="0" r="1" gradientUnits="userSpaceOnUse" gradientTransform="translate(1642 129.515) rotate(90) scale(64.5626)">
<stop stop-opacity="0"/>
<stop offset="1" stop-color="#505050"/>
</radialGradient>
<radialGradient id="paint45_angular_807_271" cx="0" cy="0" r="1" gradientUnits="userSpaceOnUse" gradientTransform="translate(64.5626 64.5626) rotate(90) scale(64.5626)">
<stop stop-opacity="0"/>
<stop offset="1" stop-color="#505050"/>
</radialGradient>
<radialGradient id="paint46_angular_807_271" cx="0" cy="0" r="1" gradientUnits="userSpaceOnUse" gradientTransform="translate(1980.84 194.232) rotate(90) scale(64.5626)">
<stop stop-opacity="0"/>
<stop offset="1" stop-color="#505050"/>
</radialGradient>
<radialGradient id="paint47_angular_807_271" cx="0" cy="0" r="1" gradientUnits="userSpaceOnUse" gradientTransform="translate(1530.19 452.327) rotate(90) scale(64.5626)">
<stop stop-opacity="0"/>
<stop offset="1" stop-color="#505050"/>
</radialGradient>
<radialGradient id="paint48_angular_807_271" cx="0" cy="0" r="1" gradientUnits="userSpaceOnUse" gradientTransform="translate(64.5626 64.5626) rotate(90) scale(64.5626)">
<stop stop-opacity="0"/>
<stop offset="1" stop-color="#505050"/>
</radialGradient>
<radialGradient id="paint49_angular_807_271" cx="0" cy="0" r="1" gradientUnits="userSpaceOnUse" gradientTransform="translate(1531.1 324.104) rotate(90) scale(64.5626)">
<stop stop-opacity="0"/>
<stop offset="1" stop-color="#505050"/>
</radialGradient>
<radialGradient id="paint50_angular_807_271" cx="0" cy="0" r="1" gradientUnits="userSpaceOnUse" gradientTransform="translate(1755.56 324.104) rotate(90) scale(64.5626)">
<stop stop-opacity="0"/>
<stop offset="1" stop-color="#505050"/>
</radialGradient>
<radialGradient id="paint51_angular_807_271" cx="0" cy="0" r="1" gradientUnits="userSpaceOnUse" gradientTransform="translate(64.5626 64.5626) rotate(90) scale(64.5626)">
<stop stop-opacity="0"/>
<stop offset="1" stop-color="#505050"/>
</radialGradient>
<radialGradient id="paint52_angular_807_271" cx="0" cy="0" r="1" gradientUnits="userSpaceOnUse" gradientTransform="translate(64.5626 64.5626) rotate(90) scale(64.5626)">
<stop stop-opacity="0"/>
<stop offset="1" stop-color="#505050"/>
</radialGradient>
<radialGradient id="paint53_angular_807_271" cx="0" cy="0" r="1" gradientUnits="userSpaceOnUse" gradientTransform="translate(64.5626 64.5626) rotate(90) scale(64.5626)">
<stop stop-opacity="0"/>
<stop offset="1" stop-color="#505050"/>
</radialGradient>
<radialGradient id="paint54_angular_807_271" cx="0" cy="0" r="1" gradientUnits="userSpaceOnUse" gradientTransform="translate(64.5626 64.5626) rotate(90) scale(64.5626)">
<stop stop-opacity="0"/>
<stop offset="1" stop-color="#505050"/>
</radialGradient>
<radialGradient id="paint55_angular_807_271" cx="0" cy="0" r="1" gradientUnits="userSpaceOnUse" gradientTransform="translate(64.5626 64.5626) rotate(90) scale(64.5626)">
<stop stop-opacity="0"/>
<stop offset="1" stop-color="#505050"/>
</radialGradient>
<radialGradient id="paint56_angular_807_271" cx="0" cy="0" r="1" gradientUnits="userSpaceOnUse" gradientTransform="translate(64.5626 64.5626) rotate(90) scale(64.5626)">
<stop stop-opacity="0"/>
<stop offset="1" stop-color="#505050"/>
</radialGradient>
<radialGradient id="paint57_angular_807_271" cx="0" cy="0" r="1" gradientUnits="userSpaceOnUse" gradientTransform="translate(64.5626 64.5626) rotate(90) scale(64.5626)">
<stop stop-opacity="0"/>
<stop offset="1" stop-color="#505050"/>
</radialGradient>
<radialGradient id="paint58_angular_807_271" cx="0" cy="0" r="1" gradientUnits="userSpaceOnUse" gradientTransform="translate(64.5626 64.5626) rotate(90) scale(64.5626)">
<stop stop-opacity="0"/>
<stop offset="1" stop-color="#505050"/>
</radialGradient>
<radialGradient id="paint59_angular_807_271" cx="0" cy="0" r="1" gradientUnits="userSpaceOnUse" gradientTransform="translate(1079.77 451.939) rotate(90) scale(64.5626)">
<stop stop-opacity="0"/>
<stop offset="1" stop-color="#505050"/>
</radialGradient>
<radialGradient id="paint60_angular_807_271" cx="0" cy="0" r="1" gradientUnits="userSpaceOnUse" gradientTransform="translate(1079.77 581.437) rotate(90) scale(64.5626)">
<stop stop-opacity="0"/>
<stop offset="1" stop-color="#505050"/>
</radialGradient>
<radialGradient id="paint61_angular_807_271" cx="0" cy="0" r="1" gradientUnits="userSpaceOnUse" gradientTransform="translate(64.5626 64.5626) rotate(90) scale(64.5626)">
<stop stop-opacity="0"/>
<stop offset="1" stop-color="#505050"/>
</radialGradient>
<radialGradient id="paint62_angular_807_271" cx="0" cy="0" r="1" gradientUnits="userSpaceOnUse" gradientTransform="translate(740.563 129.563) rotate(90) scale(64.5626)">
<stop stop-opacity="0"/>
<stop offset="1" stop-color="#505050"/>
</radialGradient>
<radialGradient id="paint63_angular_807_271" cx="0" cy="0" r="1" gradientUnits="userSpaceOnUse" gradientTransform="translate(1192.11 257.877) rotate(90) scale(64.5626)">
<stop stop-opacity="0"/>
<stop offset="1" stop-color="#505050"/>
</radialGradient>
<radialGradient id="paint64_angular_807_271" cx="0" cy="0" r="1" gradientUnits="userSpaceOnUse" gradientTransform="translate(64.5626 64.5626) rotate(90) scale(64.5626)">
<stop stop-opacity="0"/>
<stop offset="1" stop-color="#505050"/>
</radialGradient>
<radialGradient id="paint65_angular_807_271" cx="0" cy="0" r="1" gradientUnits="userSpaceOnUse" gradientTransform="translate(740.563 259.563) rotate(90) scale(64.5626)">
<stop stop-opacity="0"/>
<stop offset="1" stop-color="#505050"/>
</radialGradient>
<radialGradient id="paint66_angular_807_271" cx="0" cy="0" r="1" gradientUnits="userSpaceOnUse" gradientTransform="translate(853.563 580.563) rotate(90) scale(64.5626)">
<stop stop-opacity="0"/>
<stop offset="1" stop-color="#505050"/>
</radialGradient>
<radialGradient id="paint67_angular_807_271" cx="0" cy="0" r="1" gradientUnits="userSpaceOnUse" gradientTransform="translate(64.5626 64.5626) rotate(90) scale(64.5626)">
<stop stop-opacity="0"/>
<stop offset="1" stop-color="#505050"/>
</radialGradient>
<radialGradient id="paint68_angular_807_271" cx="0" cy="0" r="1" gradientUnits="userSpaceOnUse" gradientTransform="translate(1192.11 387.002) rotate(90) scale(64.5626)">
<stop stop-opacity="0"/>
<stop offset="1" stop-color="#505050"/>
</radialGradient>
<radialGradient id="paint69_angular_807_271" cx="0" cy="0" r="1" gradientUnits="userSpaceOnUse" gradientTransform="translate(1304.45 324.104) rotate(90) scale(64.5626)">
<stop stop-opacity="0"/>
<stop offset="1" stop-color="#505050"/>
</radialGradient>
<radialGradient id="paint70_angular_807_271" cx="0" cy="0" r="1" gradientUnits="userSpaceOnUse" gradientTransform="translate(1193.03 517.045) rotate(90) scale(64.5626)">
<stop stop-opacity="0"/>
<stop offset="1" stop-color="#505050"/>
</radialGradient>
<radialGradient id="paint71_angular_807_271" cx="0" cy="0" r="1" gradientUnits="userSpaceOnUse" gradientTransform="translate(64.5626 64.5626) rotate(90) scale(64.5626)">
<stop stop-opacity="0"/>
<stop offset="1" stop-color="#505050"/>
</radialGradient>
<radialGradient id="paint72_angular_807_271" cx="0" cy="0" r="1" gradientUnits="userSpaceOnUse" gradientTransform="translate(64.5626 64.5626) rotate(90) scale(64.5626)">
<stop stop-opacity="0"/>
<stop offset="1" stop-color="#505050"/>
</radialGradient>
<radialGradient id="paint73_angular_807_271" cx="0" cy="0" r="1" gradientUnits="userSpaceOnUse" gradientTransform="translate(966.005 129.515) rotate(90) scale(64.5626)">
<stop stop-opacity="0"/>
<stop offset="1" stop-color="#505050"/>
</radialGradient>
<radialGradient id="paint74_angular_807_271" cx="0" cy="0" r="1" gradientUnits="userSpaceOnUse" gradientTransform="translate(64.5626 64.5626) rotate(90) scale(64.5626)">
<stop stop-opacity="0"/>
<stop offset="1" stop-color="#505050"/>
</radialGradient>
<radialGradient id="paint75_angular_807_271" cx="0" cy="0" r="1" gradientUnits="userSpaceOnUse" gradientTransform="translate(1304.84 194.232) rotate(90) scale(64.5626)">
<stop stop-opacity="0"/>
<stop offset="1" stop-color="#505050"/>
</radialGradient>
<radialGradient id="paint76_angular_807_271" cx="0" cy="0" r="1" gradientUnits="userSpaceOnUse" gradientTransform="translate(854.194 452.327) rotate(90) scale(64.5626)">
<stop stop-opacity="0"/>
<stop offset="1" stop-color="#505050"/>
</radialGradient>
<radialGradient id="paint77_angular_807_271" cx="0" cy="0" r="1" gradientUnits="userSpaceOnUse" gradientTransform="translate(64.5626 64.5626) rotate(90) scale(64.5626)">
<stop stop-opacity="0"/>
<stop offset="1" stop-color="#505050"/>
</radialGradient>
<radialGradient id="paint78_angular_807_271" cx="0" cy="0" r="1" gradientUnits="userSpaceOnUse" gradientTransform="translate(855.096 324.104) rotate(90) scale(64.5626)">
<stop stop-opacity="0"/>
<stop offset="1" stop-color="#505050"/>
</radialGradient>
<radialGradient id="paint79_angular_807_271" cx="0" cy="0" r="1" gradientUnits="userSpaceOnUse" gradientTransform="translate(1079.56 324.104) rotate(90) scale(64.5626)">
<stop stop-opacity="0"/>
<stop offset="1" stop-color="#505050"/>
</radialGradient>
<radialGradient id="paint80_angular_807_271" cx="0" cy="0" r="1" gradientUnits="userSpaceOnUse" gradientTransform="translate(64.5626 64.5626) rotate(90) scale(64.5626)">
<stop stop-opacity="0"/>
<stop offset="1" stop-color="#505050"/>
</radialGradient>
<radialGradient id="paint81_angular_807_271" cx="0" cy="0" r="1" gradientUnits="userSpaceOnUse" gradientTransform="translate(64.5626 64.5626) rotate(90) scale(64.5626)">
<stop stop-opacity="0"/>
<stop offset="1" stop-color="#505050"/>
</radialGradient>
<radialGradient id="paint82_angular_807_271" cx="0" cy="0" r="1" gradientUnits="userSpaceOnUse" gradientTransform="translate(64.5626 64.5626) rotate(90) scale(64.5626)">
<stop stop-opacity="0"/>
<stop offset="1" stop-color="#505050"/>
</radialGradient>
<radialGradient id="paint83_angular_807_271" cx="0" cy="0" r="1" gradientUnits="userSpaceOnUse" gradientTransform="translate(64.5626 64.5626) rotate(90) scale(64.5626)">
<stop stop-opacity="0"/>
<stop offset="1" stop-color="#505050"/>
</radialGradient>
<radialGradient id="paint84_angular_807_271" cx="0" cy="0" r="1" gradientUnits="userSpaceOnUse" gradientTransform="translate(64.5626 64.5626) rotate(90) scale(64.5626)">
<stop stop-opacity="0"/>
<stop offset="1" stop-color="#505050"/>
</radialGradient>
<radialGradient id="paint85_angular_807_271" cx="0" cy="0" r="1" gradientUnits="userSpaceOnUse" gradientTransform="translate(64.5626 64.5626) rotate(90) scale(64.5626)">
<stop stop-opacity="0"/>
<stop offset="1" stop-color="#505050"/>
</radialGradient>
<radialGradient id="paint86_angular_807_271" cx="0" cy="0" r="1" gradientUnits="userSpaceOnUse" gradientTransform="translate(2431.77 451.939) rotate(90) scale(64.5626)">
<stop stop-opacity="0"/>
<stop offset="1" stop-color="#505050"/>
</radialGradient>
<radialGradient id="paint87_angular_807_271" cx="0" cy="0" r="1" gradientUnits="userSpaceOnUse" gradientTransform="translate(2431.77 581.437) rotate(90) scale(64.5626)">
<stop stop-opacity="0"/>
<stop offset="1" stop-color="#505050"/>
</radialGradient>
<radialGradient id="paint88_angular_807_271" cx="0" cy="0" r="1" gradientUnits="userSpaceOnUse" gradientTransform="translate(64.5626 64.5626) rotate(90) scale(64.5626)">
<stop stop-opacity="0"/>
<stop offset="1" stop-color="#505050"/>
</radialGradient>
<radialGradient id="paint89_angular_807_271" cx="0" cy="0" r="1" gradientUnits="userSpaceOnUse" gradientTransform="translate(2092.56 129.563) rotate(90) scale(64.5626)">
<stop stop-opacity="0"/>
<stop offset="1" stop-color="#505050"/>
</radialGradient>
<radialGradient id="paint90_angular_807_271" cx="0" cy="0" r="1" gradientUnits="userSpaceOnUse" gradientTransform="translate(2544.11 257.877) rotate(90) scale(64.5626)">
<stop stop-opacity="0"/>
<stop offset="1" stop-color="#505050"/>
</radialGradient>
<radialGradient id="paint91_angular_807_271" cx="0" cy="0" r="1" gradientUnits="userSpaceOnUse" gradientTransform="translate(64.5626 64.5626) rotate(90) scale(64.5626)">
<stop stop-opacity="0"/>
<stop offset="1" stop-color="#505050"/>
</radialGradient>
<radialGradient id="paint92_angular_807_271" cx="0" cy="0" r="1" gradientUnits="userSpaceOnUse" gradientTransform="translate(2092.56 259.563) rotate(90) scale(64.5626)">
<stop stop-opacity="0"/>
<stop offset="1" stop-color="#505050"/>
</radialGradient>
<radialGradient id="paint93_angular_807_271" cx="0" cy="0" r="1" gradientUnits="userSpaceOnUse" gradientTransform="translate(2205.56 580.563) rotate(90) scale(64.5626)">
<stop stop-opacity="0"/>
<stop offset="1" stop-color="#505050"/>
</radialGradient>
<radialGradient id="paint94_angular_807_271" cx="0" cy="0" r="1" gradientUnits="userSpaceOnUse" gradientTransform="translate(64.5626 64.5626) rotate(90) scale(64.5626)">
<stop stop-opacity="0"/>
<stop offset="1" stop-color="#505050"/>
</radialGradient>
<radialGradient id="paint95_angular_807_271" cx="0" cy="0" r="1" gradientUnits="userSpaceOnUse" gradientTransform="translate(2544.11 387.002) rotate(90) scale(64.5626)">
<stop stop-opacity="0"/>
<stop offset="1" stop-color="#505050"/>
</radialGradient>
<radialGradient id="paint96_angular_807_271" cx="0" cy="0" r="1" gradientUnits="userSpaceOnUse" gradientTransform="translate(2656.45 324.104) rotate(90) scale(64.5626)">
<stop stop-opacity="0"/>
<stop offset="1" stop-color="#505050"/>
</radialGradient>
<radialGradient id="paint97_angular_807_271" cx="0" cy="0" r="1" gradientUnits="userSpaceOnUse" gradientTransform="translate(2545.03 517.045) rotate(90) scale(64.5626)">
<stop stop-opacity="0"/>
<stop offset="1" stop-color="#505050"/>
</radialGradient>
<radialGradient id="paint98_angular_807_271" cx="0" cy="0" r="1" gradientUnits="userSpaceOnUse" gradientTransform="translate(64.5626 64.5626) rotate(90) scale(64.5626)">
<stop stop-opacity="0"/>
<stop offset="1" stop-color="#505050"/>
</radialGradient>
<radialGradient id="paint99_angular_807_271" cx="0" cy="0" r="1" gradientUnits="userSpaceOnUse" gradientTransform="translate(64.5626 64.5626) rotate(90) scale(64.5626)">
<stop stop-opacity="0"/>
<stop offset="1" stop-color="#505050"/>
</radialGradient>
<radialGradient id="paint100_angular_807_271" cx="0" cy="0" r="1" gradientUnits="userSpaceOnUse" gradientTransform="translate(2318.01 129.515) rotate(90) scale(64.5626)">
<stop stop-opacity="0"/>
<stop offset="1" stop-color="#505050"/>
</radialGradient>
<radialGradient id="paint101_angular_807_271" cx="0" cy="0" r="1" gradientUnits="userSpaceOnUse" gradientTransform="translate(64.5626 64.5626) rotate(90) scale(64.5626)">
<stop stop-opacity="0"/>
<stop offset="1" stop-color="#505050"/>
</radialGradient>
<radialGradient id="paint102_angular_807_271" cx="0" cy="0" r="1" gradientUnits="userSpaceOnUse" gradientTransform="translate(2656.84 194.232) rotate(90) scale(64.5626)">
<stop stop-opacity="0"/>
<stop offset="1" stop-color="#505050"/>
</radialGradient>
<radialGradient id="paint103_angular_807_271" cx="0" cy="0" r="1" gradientUnits="userSpaceOnUse" gradientTransform="translate(2206.19 452.327) rotate(90) scale(64.5626)">
<stop stop-opacity="0"/>
<stop offset="1" stop-color="#505050"/>
</radialGradient>
<radialGradient id="paint104_angular_807_271" cx="0" cy="0" r="1" gradientUnits="userSpaceOnUse" gradientTransform="translate(64.5626 64.5626) rotate(90) scale(64.5626)">
<stop stop-opacity="0"/>
<stop offset="1" stop-color="#505050"/>
</radialGradient>
<radialGradient id="paint105_angular_807_271" cx="0" cy="0" r="1" gradientUnits="userSpaceOnUse" gradientTransform="translate(2207.1 324.104) rotate(90) scale(64.5626)">
<stop stop-opacity="0"/>
<stop offset="1" stop-color="#505050"/>
</radialGradient>
<radialGradient id="paint106_angular_807_271" cx="0" cy="0" r="1" gradientUnits="userSpaceOnUse" gradientTransform="translate(2431.56 324.104) rotate(90) scale(64.5626)">
<stop stop-opacity="0"/>
<stop offset="1" stop-color="#505050"/>
</radialGradient>
<radialGradient id="paint107_angular_807_271" cx="0" cy="0" r="1" gradientUnits="userSpaceOnUse" gradientTransform="translate(64.5626 64.5626) rotate(90) scale(64.5626)">
<stop stop-opacity="0"/>
<stop offset="1" stop-color="#505050"/>
</radialGradient>
<radialGradient id="paint108_angular_807_271" cx="0" cy="0" r="1" gradientUnits="userSpaceOnUse" gradientTransform="translate(64.5626 64.5626) rotate(90) scale(64.5626)">
<stop stop-opacity="0"/>
<stop offset="1" stop-color="#505050"/>
</radialGradient>
<radialGradient id="paint109_angular_807_271" cx="0" cy="0" r="1" gradientUnits="userSpaceOnUse" gradientTransform="translate(64.5626 64.5626) rotate(90) scale(64.5626)">
<stop stop-opacity="0"/>
<stop offset="1" stop-color="#505050"/>
</radialGradient>
<radialGradient id="paint110_angular_807_271" cx="0" cy="0" r="1" gradientUnits="userSpaceOnUse" gradientTransform="translate(64.5626 64.5626) rotate(90) scale(64.5626)">
<stop stop-opacity="0"/>
<stop offset="1" stop-color="#505050"/>
</radialGradient>
<radialGradient id="paint111_angular_807_271" cx="0" cy="0" r="1" gradientUnits="userSpaceOnUse" gradientTransform="translate(64.5626 64.5626) rotate(90) scale(64.5626)">
<stop stop-opacity="0"/>
<stop offset="1" stop-color="#505050"/>
</radialGradient>
<radialGradient id="paint112_angular_807_271" cx="0" cy="0" r="1" gradientUnits="userSpaceOnUse" gradientTransform="translate(64.5626 64.5626) rotate(90) scale(64.5626)">
<stop stop-opacity="0"/>
<stop offset="1" stop-color="#505050"/>
</radialGradient>
<radialGradient id="paint113_angular_807_271" cx="0" cy="0" r="1" gradientUnits="userSpaceOnUse" gradientTransform="translate(64.5626 64.5626) rotate(90) scale(64.5626)">
<stop stop-opacity="0"/>
<stop offset="1" stop-color="#505050"/>
</radialGradient>
<radialGradient id="paint114_angular_807_271" cx="0" cy="0" r="1" gradientUnits="userSpaceOnUse" gradientTransform="translate(64.5626 64.5626) rotate(90) scale(64.5626)">
<stop stop-opacity="0"/>
<stop offset="1" stop-color="#505050"/>
</radialGradient>
<radialGradient id="paint115_angular_807_271" cx="0" cy="0" r="1" gradientUnits="userSpaceOnUse" gradientTransform="translate(64.5626 64.5626) rotate(90) scale(64.5626)">
<stop stop-opacity="0"/>
<stop offset="1" stop-color="#505050"/>
</radialGradient>
<radialGradient id="paint116_angular_807_271" cx="0" cy="0" r="1" gradientUnits="userSpaceOnUse" gradientTransform="translate(64.5626 64.5626) rotate(90) scale(64.5626)">
<stop stop-opacity="0"/>
<stop offset="1" stop-color="#505050"/>
</radialGradient>
</defs>
</svg>
